<?xml version="1.0" standalone="no"?>
<!DOCTYPE svg PUBLIC "-//W3C//DTD SVG 20010904//EN"
 "http://www.w3.org/TR/2001/REC-SVG-20010904/DTD/svg10.dtd">
<svg version="1.0" xmlns="http://www.w3.org/2000/svg"
 width="988.000000pt" height="988.000000pt" viewBox="0 0 988.000000 988.000000"
 preserveAspectRatio="xMidYMid meet">

<g transform="translate(0.000000,988.000000) scale(0.100000,-0.100000)"
fill="#000000" stroke="none">
<path d="M5170 8125 c-36 -7 -92 -18 -125 -23 -33 -5 -112 -23 -175 -40 -63
-17 -149 -35 -190 -42 -173 -25 -332 -100 -515 -245 -137 -108 -170 -140 -202
-202 -29 -55 -83 -246 -83 -292 0 -11 -4 -40 -10 -63 -5 -24 -19 -99 -30 -168
-11 -69 -33 -190 -48 -270 -22 -118 -27 -173 -27 -295 1 -196 18 -303 56 -352
16 -19 29 -42 29 -51 0 -8 9 -31 19 -51 20 -39 35 -91 46 -158 13 -83 22 -41
20 100 -2 279 10 357 66 416 12 13 32 43 44 67 12 24 25 41 29 37 3 -3 6 -1 6
5 0 7 -5 12 -11 12 -6 0 -3 7 5 16 9 8 17 18 17 22 5 26 10 78 13 142 3 72 29
175 47 185 4 3 5 13 2 22 -4 10 -2 14 4 10 6 -4 13 -2 15 5 2 6 18 11 36 11
18 0 32 4 32 9 0 15 52 30 61 17 5 -9 13 -8 29 4 14 10 34 13 56 10 27 -4 34
-2 34 10 0 9 5 19 11 23 8 4 9 -4 5 -27 -6 -27 -5 -30 4 -16 6 9 18 17 27 17
12 0 13 3 4 14 -10 12 -8 16 11 21 13 4 48 18 78 32 34 16 56 21 58 14 2 -6
10 -11 17 -11 7 0 15 -5 17 -12 3 -7 11 -9 24 -3 33 13 68 15 77 2 6 -8 7 -7
4 4 -4 13 2 18 25 21 27 4 29 3 14 -8 -16 -11 -12 -13 30 -20 26 -4 55 -14 65
-22 12 -11 34 -15 63 -13 24 1 47 -2 51 -8 3 -6 16 -11 29 -11 12 0 26 -3 30
-7 4 -4 26 -9 48 -10 23 -2 49 -10 58 -18 9 -8 22 -15 28 -15 7 0 12 -7 12
-15 0 -9 9 -15 24 -15 13 0 26 -6 29 -14 3 -8 21 -17 39 -21 18 -4 40 -13 48
-20 8 -7 27 -15 41 -18 27 -7 73 -44 80 -65 2 -7 36 -23 74 -36 54 -18 71 -28
73 -45 2 -11 10 -21 18 -21 17 0 19 -17 2 -22 -18 -6 -1 -37 31 -56 48 -27 80
-115 46 -128 -22 -9 -20 -79 3 -96 22 -15 35 -68 18 -68 -6 0 -5 -4 3 -9 24
-15 -17 -28 -114 -36 -82 -7 -153 -22 -115 -25 9 0 6 -6 -10 -15 -14 -8 -32
-12 -40 -10 -8 2 -25 -10 -38 -26 l-24 -29 34 0 c49 0 77 10 80 28 3 14 5 14
18 0 13 -12 43 -15 165 -14 120 0 159 -3 194 -17 61 -24 126 -76 145 -115 18
-37 21 -78 7 -87 -6 -3 -7 -26 -4 -52 4 -30 2 -44 -5 -39 -6 3 -17 -1 -26 -9
-19 -19 -33 -1 -16 20 10 13 8 15 -16 15 -44 0 -73 11 -68 24 7 18 -67 91
-118 117 -29 15 -66 23 -115 26 -40 2 -73 1 -73 -2 0 -2 20 -10 45 -16 24 -6
50 -17 56 -25 10 -12 0 -14 -57 -14 -57 0 -197 -26 -156 -29 6 -1 12 -14 12
-30 0 -56 63 -93 139 -81 31 4 35 10 48 53 12 41 16 46 32 38 10 -6 24 -17 31
-26 11 -13 10 -18 -6 -30 -10 -8 -29 -18 -41 -21 -12 -3 -24 -11 -26 -17 -3
-8 14 -12 56 -11 65 2 87 -10 87 -44 0 -15 9 -21 34 -26 18 -4 41 -4 50 0 9 3
16 1 16 -5 0 -6 9 -11 21 -11 11 0 18 -4 15 -8 -3 -5 6 -15 20 -23 20 -10 25
-19 22 -40 -3 -18 0 -25 7 -22 13 4 39 -47 38 -76 0 -9 4 -21 9 -27 11 -15 0
-162 -15 -194 -12 -26 -14 -159 -2 -240 16 -116 15 -142 -6 -147 -20 -5 -24
-18 -20 -65 1 -16 -2 -28 -7 -28 -14 0 -45 -87 -36 -101 4 -7 3 -9 -3 -6 -6 4
-22 -10 -35 -31 -29 -43 -120 -138 -171 -176 -29 -22 -39 -25 -60 -17 -17 7
-28 7 -32 1 -4 -6 6 -10 20 -10 15 0 24 -4 20 -10 -3 -6 -19 -10 -36 -10 -16
0 -29 -5 -29 -11 0 -6 -14 -31 -32 -57 -18 -26 -33 -55 -33 -66 -1 -10 -9 -24
-18 -31 -10 -7 -17 -15 -17 -18 0 -15 -70 -115 -85 -120 -8 -4 -15 -13 -15
-21 0 -8 -6 -16 -12 -19 -10 -4 -10 -7 0 -18 11 -12 15 -12 25 1 7 9 28 26 48
38 31 19 38 20 48 8 10 -12 0 -25 -55 -70 -80 -66 -174 -117 -272 -146 -39
-12 -74 -26 -77 -30 -3 -5 12 -11 32 -14 98 -15 145 -8 240 35 24 10 49 19 57
19 8 0 18 9 21 20 4 13 15 20 31 20 14 0 35 11 47 24 37 40 97 75 115 69 26
-10 42 -30 42 -52 0 -12 6 -21 15 -21 11 0 15 -11 15 -40 0 -21 6 -54 14 -72
38 -91 50 -194 26 -223 -5 -6 -8 -74 -7 -151 l2 -140 -35 -44 c-19 -25 -42
-52 -50 -62 -8 -9 -21 -23 -27 -32 -10 -12 -38 -15 -140 -14 -71 1 -157 -5
-192 -12 -80 -16 -364 -7 -466 16 -38 8 -104 21 -145 29 -137 26 -261 66 -375
120 -177 84 -338 261 -338 372 0 24 -3 42 -6 40 -49 -25 -322 -112 -416 -131
-38 -8 -113 -19 -165 -26 -52 -6 -165 -27 -250 -46 -334 -77 -469 -96 -515
-71 -53 28 -186 4 -355 -64 -25 -10 -70 -25 -100 -34 -81 -23 -143 -57 -157
-85 -7 -14 -13 -44 -13 -67 0 -59 -12 -83 -65 -134 -26 -24 -58 -65 -71 -91
-52 -103 -120 -292 -169 -473 -26 -97 -31 -113 -75 -260 -23 -77 -51 -171 -62
-210 -11 -38 -23 -83 -28 -100 -5 -16 -25 -88 -44 -160 -20 -71 -45 -159 -56
-195 -58 -191 -125 -490 -140 -626 -5 -45 -15 -111 -24 -145 -8 -35 -26 -116
-41 -179 -23 -100 -64 -243 -111 -387 -17 -51 -84 -318 -84 -332 0 -6 22 -11
50 -11 41 0 50 3 50 18 1 16 1 16 14 0 10 -14 28 -18 75 -18 62 0 68 3 51 30
-7 11 -12 12 -21 3 -6 -6 -18 -9 -25 -6 -11 4 -8 9 9 22 41 32 90 52 101 41 7
-7 5 -10 -7 -10 -9 0 -17 -6 -17 -14 0 -8 -5 -16 -12 -18 -7 -3 -9 -11 -4 -24
8 -18 9 -18 19 3 13 30 30 29 47 -2 l13 -25 502 0 502 0 5 83 c3 45 11 94 18
110 28 58 102 40 162 -40 37 -50 74 -77 94 -69 8 3 14 0 14 -7 0 -8 3 -8 9 1
6 10 10 7 15 -12 3 -14 12 -26 19 -26 7 0 18 -9 25 -20 12 -20 23 -20 3017
-20 2714 0 3005 2 3005 16 0 47 -94 594 -126 739 -9 39 -20 97 -24 130 -4 33
-28 166 -53 295 -25 129 -55 303 -67 385 -44 306 -65 416 -136 715 -28 118
-96 330 -133 410 -24 54 -74 103 -202 198 -109 81 -420 241 -614 317 -71 28
-109 44 -180 76 -22 10 -78 32 -125 49 -47 17 -128 47 -180 67 -183 68 -286
102 -405 133 -287 75 -362 101 -408 145 -21 20 -47 35 -61 35 -58 0 -114 43
-163 125 -61 101 -65 128 -64 377 1 248 14 331 64 409 44 70 101 208 117 284
7 33 19 79 26 103 8 23 14 53 14 66 0 13 5 37 11 55 10 27 16 31 46 31 20 0
54 5 77 12 89 25 125 75 110 151 -10 56 -11 355 -1 387 15 42 38 224 32 248
-3 12 -10 22 -15 22 -6 0 -10 7 -10 15 0 8 7 15 15 15 11 0 15 11 15 38 0 20
5 55 10 77 19 74 60 269 71 329 5 32 14 67 20 77 5 11 18 60 29 111 45 212 35
465 -26 663 -38 125 -146 331 -214 408 -47 53 -203 160 -259 177 -20 6 -45 15
-56 20 -11 4 -67 24 -125 43 -211 71 -256 88 -283 108 -40 29 -103 51 -172 59
-33 4 -76 10 -95 13 -19 3 -64 0 -100 -8z m-617 -562 c-7 -2 -13 -12 -13 -20
0 -15 -77 -92 -93 -93 -5 0 7 18 25 40 18 22 38 40 44 40 7 0 14 9 17 20 3 11
11 20 19 19 10 0 10 -2 1 -6z m254 -30 c-9 -9 -20 -13 -24 -9 -4 4 -1 11 7 16
25 16 35 11 17 -7z m53 -53 c-20 -13 -33 -13 -25 0 3 6 14 10 23 10 15 0 15
-2 2 -10z m-270 -25 c-7 -8 -17 -15 -23 -15 -6 0 -2 7 9 15 25 19 30 19 14 0z
m316 -44 c-3 -5 -21 -12 -41 -15 -19 -4 -41 -14 -50 -22 -8 -9 -15 -11 -15 -4
0 6 19 19 43 30 46 20 71 25 63 11z m-494 -41 c-6 -16 -11 -20 -16 -11 -4 6
-2 19 5 27 16 20 21 12 11 -16z m861 13 c-7 -2 -19 -2 -25 0 -7 3 -2 5 12 5
14 0 19 -2 13 -5z m-323 -28 c-7 -8 -18 -15 -24 -15 -6 0 -2 7 8 15 25 19 32
19 16 0z m20 -68 c0 -2 -10 -12 -22 -23 l-23 -19 19 23 c18 21 26 27 26 19z
m485 -217 c-28 -12 -37 -12 -30 0 3 6 16 10 28 9 21 0 21 -1 2 -9z m-48 -16
c-3 -3 -12 -4 -19 -1 -8 3 -5 6 6 6 11 1 17 -2 13 -5z m306 -1 c-7 -2 -19 -2
-25 0 -7 3 -2 5 12 5 14 0 19 -2 13 -5z m-413 -167 c0 -3 -4 -8 -10 -11 -5 -3
-10 -1 -10 4 0 6 5 11 10 11 6 0 10 -2 10 -4z m486 -932 c19 -9 34 -20 34 -25
0 -12 -1 -12 -44 6 -20 8 -36 20 -36 25 0 14 6 13 46 -6z m-210 -59 c9 -38 8
-45 -5 -45 -18 0 -61 39 -61 56 0 13 27 33 45 34 6 0 15 -20 21 -45z m79 -14
c-8 -27 -35 -28 -30 -1 2 11 7 25 11 31 11 18 27 -7 19 -30z m652 -98 c6 -23
8 -45 5 -48 -8 -8 -32 53 -32 83 0 36 15 17 27 -35z m-4025 -3178 c49 -133 86
-255 79 -255 -4 0 -13 17 -19 38 -48 154 -69 215 -94 270 -15 35 -28 69 -28
75 1 20 31 -43 62 -128z m98 -307 c0 -19 -2 -20 -10 -8 -13 19 -13 30 0 30 6
0 10 -10 10 -22z m2124 -211 c8 -26 10 -47 5 -47 -8 0 -29 63 -29 89 0 23 9 7
24 -42z m26 -83 c13 -32 13 -44 0 -44 -5 0 -10 10 -10 23 0 13 -5 28 -12 35
-9 9 -9 12 0 12 7 0 17 -12 22 -26z m-1115 -23 c61 -11 178 -32 260 -46 83
-15 179 -35 215 -46 124 -37 270 -62 286 -49 20 18 17 55 -8 100 -13 21 -19
42 -15 46 11 11 161 -141 208 -210 45 -67 48 -90 17 -123 -35 -38 -129 -27
-283 32 -38 15 -87 34 -109 41 -21 8 -51 21 -67 29 -15 8 -35 15 -44 15 -9 0
-24 7 -32 16 -10 9 -25 13 -39 10 -12 -3 -24 -3 -26 2 -2 4 -34 18 -73 31 -38
13 -88 32 -111 42 -22 11 -50 19 -63 19 -12 0 -36 7 -52 16 -36 18 -174 56
-206 56 -22 1 -38 22 -27 39 3 6 18 8 32 5 15 -2 77 -14 137 -25z m-911 -17
c3 -8 2 -12 -4 -9 -6 3 -10 10 -10 16 0 14 7 11 14 -7z m2064 -82 c26 -79 79
-275 94 -347 6 -27 19 -80 29 -117 12 -46 15 -77 9 -95 l-8 -28 -1 32 c-1 18
-8 54 -17 80 -10 26 -23 75 -30 108 -11 53 -39 164 -63 250 -5 17 -16 50 -24
75 -21 63 -30 110 -20 110 4 0 18 -31 31 -68z m-2511 -19 c-3 -10 -5 -2 -5 17
0 19 2 27 5 18 2 -10 2 -26 0 -35z m67 -358 c10 -55 21 -119 27 -142 5 -23 9
-54 8 -70 -1 -28 -1 -27 -14 7 -7 19 -14 51 -14 70 -1 19 -8 65 -16 103 -17
80 -30 209 -16 162 5 -16 16 -75 25 -130z m633 63 c-3 -8 -6 -5 -6 6 -1 11 2
17 5 13 3 -3 4 -12 1 -19z m1987 -458 c4 -33 3 -49 -3 -40 -11 19 -21 115 -11
103 4 -4 10 -33 14 -63z m-1760 -476 c10 -25 -1 -29 -14 -5 -6 12 -7 21 -1 21
5 0 12 -7 15 -16z m-103 -270 c9 -11 8 -14 -6 -14 -12 0 -15 -5 -10 -17 4 -10
8 -56 11 -102 4 -83 4 -83 -19 -76 -12 4 -45 10 -73 15 -42 6 -59 15 -87 46
-19 21 -32 45 -30 54 8 31 79 103 113 114 38 13 80 5 101 -20z m223 -114 c5
-17 4 -20 -2 -10 -5 8 -13 26 -16 40 -5 17 -4 20 2 10 5 -8 13 -26 16 -40z
m-1894 -190 c0 -14 -7 -20 -22 -20 -21 0 -21 0 -2 19 24 25 24 25 24 1z"/>
<path d="M4570 6160 c-12 -8 -10 -10 8 -10 13 0 20 4 17 10 -7 12 -6 12 -25 0z"/>
<path d="M4605 6030 c3 -5 10 -10 16 -10 5 0 9 5 9 10 0 6 -7 10 -16 10 -8 0
-12 -4 -9 -10z"/>
<path d="M4640 6023 c0 -5 31 -23 68 -41 67 -34 67 -34 42 -7 -38 41 -111 72
-110 48z"/>
<path d="M5249 5992 c-39 -4 -109 -73 -109 -105 0 -36 20 -130 31 -143 9 -11
11 -52 9 -186 0 -43 4 -85 9 -95 5 -10 12 -30 15 -44 5 -21 14 -29 47 -37 31
-8 47 -7 61 1 16 10 23 7 49 -22 61 -70 47 -128 -35 -148 -58 -15 -78 -29 -56
-43 13 -9 13 -10 0 -11 -8 -1 -21 -1 -27 0 -7 1 -15 -15 -19 -39 -4 -22 -12
-39 -18 -38 -6 1 -24 -5 -40 -13 -33 -18 -25 -28 31 -34 21 -3 61 -8 88 -12
28 -4 54 -6 58 -5 4 1 16 -2 26 -8 11 -6 30 -6 50 0 18 5 33 5 36 -1 4 -5 17
-9 31 -9 14 0 33 -4 42 -9 9 -5 41 -12 70 -16 46 -6 52 -5 52 12 0 26 -54 73
-84 73 -14 0 -26 5 -26 11 0 7 -10 9 -27 4 -16 -4 -25 -3 -21 1 10 9 -22 33
-43 34 -9 0 -19 7 -23 15 -3 8 -15 15 -26 15 -11 0 -20 5 -20 11 0 6 -10 10
-22 9 -40 -4 -58 0 -58 10 0 6 12 8 28 4 19 -4 23 -3 13 4 -11 8 -10 11 5 16
11 4 31 17 46 31 25 21 28 31 29 94 2 78 -6 95 -72 163 -39 40 -51 78 -25 78
7 0 19 7 27 16 10 13 10 20 -4 44 -22 36 -22 66 1 79 11 7 13 13 7 18 -17 13
-71 86 -78 106 -4 11 3 33 18 57 14 22 19 37 12 34 -9 -3 -16 9 -23 38 -8 39
-12 43 -35 40z m351 -978 c0 -8 -4 -12 -10 -9 -5 3 -10 10 -10 16 0 5 5 9 10
9 6 0 10 -7 10 -16z"/>
<path d="M5362 5954 l-37 -36 43 33 c23 18 42 34 42 36 0 9 -14 0 -48 -33z"/>
<path d="M4477 5973 c-11 -3 -16 -11 -13 -21 2 -9 7 -32 11 -50 8 -41 30 -52
102 -52 55 0 59 2 71 30 22 48 12 84 -23 91 -35 8 -122 9 -148 2z m76 -65 c4
-43 2 -48 -16 -48 -20 0 -46 26 -47 46 0 18 42 66 50 57 4 -4 10 -29 13 -55z
m74 -15 c-22 -23 -38 -6 -26 26 9 23 11 24 26 8 16 -16 16 -18 0 -34z"/>
<path d="M4357 5929 c-61 -31 -66 -49 -16 -49 17 0 28 4 24 10 -3 5 12 21 35
36 68 46 43 47 -43 3z"/>
<path d="M5394 5905 c-28 -14 -61 -36 -74 -50 l-23 -25 49 0 c44 1 47 2 31 14
-17 13 -15 16 27 46 40 27 54 40 43 40 -2 0 -26 -11 -53 -25z"/>
<path d="M4736 5861 c-3 -5 10 -11 29 -13 24 -3 35 0 35 9 0 15 -56 18 -64 4z"/>
<path d="M5179 5229 c-19 -16 -20 -19 -6 -15 10 3 26 6 36 6 9 0 26 7 37 15
18 14 17 14 -12 15 -18 0 -42 -9 -55 -21z"/>
<path d="M4001 4954 c0 -11 3 -14 6 -6 3 7 2 16 -1 19 -3 4 -6 -2 -5 -13z"/>
<path d="M4007 4908 c10 -47 55 -174 71 -204 40 -73 55 -99 68 -112 8 -7 14
-18 14 -23 0 -6 18 -36 40 -66 22 -31 40 -60 40 -65 0 -11 83 -138 88 -134 3
4 -38 98 -47 106 -3 3 -24 32 -45 65 -21 33 -47 72 -57 86 -40 59 -119 231
-148 321 -14 42 -32 61 -24 26z"/>
<path d="M4470 4921 c0 -19 68 -69 102 -75 l37 -7 -11 33 c-6 18 -13 36 -17
39 -9 10 -111 19 -111 10z"/>
<path d="M5502 4893 c-49 -4 -53 -6 -67 -40 -9 -20 -21 -43 -27 -51 -10 -12
-13 -11 -19 5 -6 15 -9 13 -20 -14 -16 -40 -36 -49 -60 -28 -15 14 -18 14 -26
2 -4 -7 -17 -19 -28 -25 -19 -11 -19 -11 5 -14 14 -1 36 -2 50 -3 18 0 25 -6
25 -20 0 -12 6 -20 16 -19 11 1 14 -5 11 -22 -5 -29 12 -31 35 -4 10 11 22 20
27 20 17 0 82 75 119 138 40 67 44 83 25 80 -7 -1 -37 -3 -66 -5z"/>
<path d="M5390 4880 c-9 -6 -10 -10 -3 -10 6 0 15 5 18 10 8 12 4 12 -15 0z"/>
<path d="M5376 4124 c-4 -9 -4 -19 -1 -22 6 -6 35 18 35 29 0 16 -28 10 -34
-7z"/>
<path d="M5336 4089 c-11 -11 -25 -19 -33 -19 -7 0 -13 -4 -13 -10 0 -9 27 -3
45 11 6 4 13 8 18 8 8 1 10 8 5 20 -2 4 -12 0 -22 -10z"/>
<path d="M5256 4061 c-3 -5 -26 -12 -51 -15 -24 -4 -47 -11 -50 -17 -8 -11 -7
-11 54 2 44 9 92 39 63 39 -6 0 -13 -4 -16 -9z"/>
<path d="M4885 4051 c-6 -11 9 -23 19 -14 9 9 7 23 -3 23 -6 0 -12 -4 -16 -9z"/>
<path d="M4950 4040 c20 -13 53 -13 45 0 -3 6 -18 10 -33 10 -21 0 -24 -2 -12
-10z"/>
</g>
</svg>
